# Blender v2.79 (sub 0) OBJ File: 'Spider.blend'
# www.blender.org
o Spider_Cube
v 0.490030 0.152852 3.507971
v -0.513415 -0.545074 -1.674146
v 0.515980 -0.545074 -1.674145
v 0.115469 -0.206170 2.730748
v 0.115470 0.417151 2.860518
v -0.513414 0.484321 -1.674147
v 0.515980 0.484321 -1.674145
v 0.490030 0.042591 2.860519
v -0.493266 -0.524925 0.637732
v -0.784894 -0.816553 -0.055382
v -0.784894 -0.816553 -0.317441
v -0.784894 -0.816553 -0.579499
v -0.648059 -0.679718 -1.240691
v 0.650624 -0.679718 -1.240691
v 0.787459 -0.816553 -0.579499
v 0.787459 -0.816553 -0.317440
v 0.787459 -0.816553 -0.055382
v 0.495831 -0.524925 0.637732
v -0.493266 0.464172 0.637731
v -0.784894 0.755800 -0.055382
v -0.784894 0.755800 -0.317441
v -0.784894 0.755800 -0.579500
v -0.648058 0.618965 -1.240692
v 0.650624 0.618965 -1.240691
v 0.787459 0.755800 -0.579499
v 0.787459 0.755800 -0.317440
v 0.787459 0.755800 -0.055382
v 0.495831 0.464172 0.637732
v -0.487464 0.042591 2.860518
v -0.112904 0.417151 2.860518
v -0.487464 0.152852 3.507970
v -0.112904 -0.206170 2.730748
v -0.108496 -0.651226 1.418940
v -0.459945 -0.299777 1.418939
v -0.411693 -0.685519 1.124259
v 0.457236 -0.299777 1.418940
v 0.105786 -0.651226 1.418940
v 0.313773 -0.685519 1.124259
v -0.457308 0.076765 1.452133
v -0.105859 0.428214 1.452133
v -0.513015 0.332357 0.860503
v 0.108424 0.428214 1.452133
v 0.459873 0.076765 1.452134
v 0.515581 0.332357 0.860504
v -0.079350 -0.058270 2.601670
v -0.013922 -0.060817 2.601669
v 0.016488 -0.060817 2.601670
v 0.081916 -0.058270 2.601670
v -0.013923 0.069348 2.601669
v -0.266385 0.066801 2.601669
v 0.268950 0.066801 2.601669
v 0.016488 0.069348 2.601669
v 0.079499 0.390220 1.628182
v 0.108424 0.428214 1.804230
v 0.077952 0.388188 1.980278
v 0.108424 0.428214 2.156326
v 0.085570 0.398195 2.332374
v 0.108424 0.428214 2.508422
v 0.144341 0.475392 2.684470
v 0.459873 -0.137518 1.628182
v 0.459873 -0.137518 1.804230
v 0.459873 -0.137518 1.980278
v 0.459873 -0.137518 2.156327
v 0.459873 -0.137518 2.332375
v 0.459873 -0.137518 2.508423
v 0.459873 -0.137518 2.684471
v -0.333501 0.133652 1.628182
v -0.457308 0.076765 1.804229
v -0.326881 0.136694 1.980278
v -0.457308 0.076765 2.156326
v -0.359488 0.121711 2.332374
v -0.457308 0.076765 2.508422
v -0.611039 0.006127 2.684470
v -0.105858 -0.370536 1.628182
v -0.105858 -0.370536 1.804230
v -0.105858 -0.370536 1.980278
v -0.105858 -0.370536 2.156327
v -0.105858 -0.370536 2.332375
v -0.105858 -0.370536 2.508423
v -0.105858 -0.370536 2.684471
v -0.457308 -0.137518 2.684470
v -0.457308 -0.137518 2.508422
v -0.457308 -0.137518 2.332374
v -0.457308 -0.137518 2.156326
v -0.457308 -0.137518 1.980278
v -0.457308 -0.137518 1.804230
v -0.457308 -0.137518 1.628182
v -0.141775 0.475392 2.684470
v -0.105858 0.428214 2.508422
v -0.083005 0.398195 2.332374
v -0.105858 0.428214 2.156326
v -0.075387 0.388188 1.980278
v -0.105859 0.428214 1.804229
v -0.076933 0.390220 1.628182
v 0.613605 0.006128 2.684471
v 0.459873 0.076765 2.508423
v 0.362054 0.121711 2.332375
v 0.459873 0.076765 2.156327
v 0.329446 0.136694 1.980278
v 0.459873 0.076765 1.804230
v 0.336067 0.133652 1.628182
v 0.108424 -0.370536 2.684471
v 0.108424 -0.370536 2.508423
v 0.108424 -0.370536 2.332375
v 0.108424 -0.370536 2.156327
v 0.108424 -0.370536 1.980279
v 0.108424 -0.370536 1.804230
v 0.108424 -0.370536 1.628182
v 2.923739 -0.937299 0.727787
v 2.923739 -0.937299 0.695405
v 2.923739 -0.976713 0.695405
v 2.923739 -0.976713 0.727787
v 2.702318 -0.814102 1.703629
v 2.702318 -0.814102 1.736011
v 2.606943 -0.833095 2.251481
v 2.606943 -0.833095 2.283862
v 2.731828 -0.707891 2.573656
v 2.731828 -0.707891 2.606037
v 2.731828 -0.668477 2.606037
v 2.731828 -0.668477 2.573656
v 2.606943 -0.793681 2.283862
v 2.606943 -0.793681 2.251481
v 2.702318 -0.774688 1.736011
v 2.702318 -0.774688 1.703629
v -2.963400 -0.849785 0.304789
v -2.963400 -0.849785 0.272408
v -2.963400 -0.810371 0.272408
v -2.963400 -0.810371 0.304789
v -2.819122 -1.006299 1.323379
v -2.819122 -1.006299 1.355761
v -2.675597 -0.888351 2.046125
v -2.675597 -0.888351 2.078506
v -2.603913 -0.988154 2.603418
v -2.603913 -0.988154 2.635799
v -2.603913 -1.027569 2.635799
v -2.603913 -1.027569 2.603418
v -2.675596 -0.927765 2.078506
v -2.675596 -0.927765 2.046125
v -2.819122 -1.045713 1.355761
v -2.819122 -1.045713 1.323379
v 1.481547 1.817023 1.452134
v 1.481547 1.602741 1.452134
v 1.481547 1.602741 1.628182
v 1.481547 1.817023 1.628182
v 1.481547 1.019282 1.804230
v 1.481547 1.019282 1.980278
v 1.481547 1.233564 1.980278
v 1.481547 1.233564 1.804230
v 1.481547 1.072141 2.156326
v 1.481547 1.072141 2.332375
v 1.481547 1.286423 2.156326
v 1.481547 1.286423 2.332375
v 1.481547 0.921500 2.508423
v 1.481547 0.707217 2.508423
v 1.481547 0.707217 2.684471
v 1.481547 0.921500 2.684471
v -1.479509 0.707217 2.508423
v -1.479509 0.921499 2.508422
v -1.479509 0.921499 2.684470
v -1.479509 0.707217 2.684471
v -1.479509 1.072140 2.332375
v -1.479509 1.072140 2.156326
v -1.479509 1.286423 2.156326
v -1.479509 1.286423 2.332374
v -1.479509 1.233564 1.804230
v -1.479509 1.233564 1.980278
v -1.479509 1.019282 1.980278
v -1.479509 1.019282 1.804230
v -1.479509 1.817023 1.628182
v -1.479509 1.602741 1.628182
v -1.479509 1.602741 1.452134
v -1.479509 1.817023 1.452133
v 0.302750 0.412627 2.860519
v 0.284149 0.357461 1.452134
v 0.041427 0.074780 2.601669
v 0.378973 0.380920 2.684471
v 0.284149 0.357461 2.508423
v 0.223812 0.342533 2.332375
v 0.284149 0.357461 2.156326
v 0.203699 0.337557 1.980278
v 0.284149 0.357461 1.804230
v 0.207783 0.338568 1.628182
v -0.300184 0.412627 2.860518
v -0.281583 0.357461 1.452133
v -0.038861 0.074780 2.601669
v -0.376407 0.380920 2.684470
v -0.281583 0.357461 2.508422
v -0.221246 0.342533 2.332374
v -0.281583 0.357461 2.156326
v -0.201134 0.337557 1.980278
v -0.281583 0.357461 1.804229
v -0.205217 0.338568 1.628182
v -0.076952 0.290823 3.055890
v -0.266458 0.076169 3.051998
v 0.079518 -0.153375 2.683864
v 0.409730 0.051385 2.766500
v -0.076952 -0.153375 2.683864
v -0.407164 0.051385 2.766500
v 0.079518 0.290823 3.055890
v 0.269024 0.076169 3.051999
v 0.207832 0.289915 3.055890
v -0.205267 0.289914 3.055890
v -0.228013 -0.488967 -2.070934
v 0.001283 -0.488967 -2.070934
v 0.230578 -0.488967 -2.070934
v -0.228012 0.428214 -2.070935
v 0.001283 0.428214 -2.070935
v 0.230578 0.428214 -2.070934
v 0.315810 0.598679 0.835101
v 0.001283 0.598679 0.835101
v -0.313245 0.598679 0.835100
v 0.501283 0.969624 0.023933
v 0.001283 0.969624 0.023933
v -0.498717 0.969624 0.023933
v 0.501283 0.969624 -0.309400
v 0.001283 0.969624 -0.309401
v -0.498717 0.969624 -0.309401
v 0.501283 0.969624 -0.642734
v 0.001283 0.969624 -0.642734
v -0.498717 0.969624 -0.642734
v 0.414257 0.795572 -1.483756
v 0.001283 0.795572 -1.483757
v -0.411691 0.795572 -1.483757
v -0.313245 -0.659432 0.835101
v 0.001283 -0.659432 0.835101
v 0.315810 -0.659432 0.835101
v -0.498717 -1.030377 0.023933
v 0.001283 -1.030377 0.023933
v 0.501283 -1.030377 0.023933
v -0.498717 -1.030377 -0.309400
v 0.001283 -1.030377 -0.309400
v 0.501283 -1.030377 -0.309400
v -0.498717 -1.030377 -0.642734
v 0.001283 -1.030377 -0.642734
v 0.501283 -1.030377 -0.642734
v -0.411692 -0.856325 -1.483756
v 0.001283 -0.856325 -1.483756
v 0.414257 -0.856325 -1.483756
v -0.546807 -0.304421 -1.799676
v -0.585605 -0.030377 -1.893356
v -0.546807 0.243668 -1.799676
v 0.549372 -0.304421 -1.799675
v 0.588170 -0.030377 -1.893355
v 0.549373 0.243668 -1.799675
v 0.692752 0.315358 -1.298672
v 0.741699 -0.030377 -1.329496
v 0.692752 -0.376111 -1.298672
v 0.838465 0.388215 -0.594583
v 0.897727 -0.030377 -0.575566
v 0.838465 -0.448968 -0.594583
v 0.838465 0.388215 -0.315522
v 0.897727 -0.030377 -0.276751
v 0.838465 -0.448968 -0.315522
v 0.838465 0.388215 -0.036462
v 0.897727 -0.030377 0.022063
v 0.838465 -0.448968 -0.036462
v 0.527917 0.232940 0.684812
v 0.565196 -0.030377 0.767345
v 0.527917 -0.293694 0.684813
v -0.525351 0.232940 0.684812
v -0.562630 -0.030377 0.767345
v -0.525351 -0.293694 0.684812
v -0.835900 0.388215 -0.036462
v -0.895161 -0.030377 0.022063
v -0.835900 -0.448968 -0.036462
v -0.835899 0.388215 -0.315523
v -0.895161 -0.030377 -0.276752
v -0.835899 -0.448968 -0.315523
v -0.835899 0.388215 -0.594584
v -0.895161 -0.030377 -0.575566
v -0.835900 -0.448968 -0.594583
v -0.690187 0.315358 -1.298673
v -0.739134 -0.030377 -1.329496
v -0.690187 -0.376111 -1.298673
v -0.228013 0.198919 -2.070935
v -0.244244 -0.030377 -2.156424
v -0.228013 -0.259672 -2.070935
v 0.001283 0.198919 -2.070935
v 0.001283 -0.030377 -2.156424
v 0.001283 -0.259672 -2.070934
v 0.230578 0.198919 -2.070934
v 0.246809 -0.030377 -2.156424
v 0.230578 -0.259672 -2.070934
v -0.043040 -0.560941 -2.379389
v 0.000263 -0.560941 -2.379389
v 0.043566 -0.560941 -2.379389
v -0.043040 -0.517638 -2.379389
v 0.000263 -0.517638 -2.379389
v 0.043566 -0.517638 -2.379389
vn 0.7062 -0.5228 -0.4774
vn 0.7062 0.5228 -0.4774
vn -0.9158 0.2365 -0.3247
vn 0.7044 0.2295 -0.6717
vn -0.3082 0.9511 -0.0197
vn 0.9840 -0.1246 0.1270
vn 0.9158 0.2365 -0.3247
vn 0.9619 0.1578 -0.2233
vn 0.9905 0.1374 0.0000
vn 0.8861 0.1705 0.4311
vn 0.0000 -0.9995 -0.0322
vn -0.8861 0.1705 0.4311
vn -0.9905 0.1374 -0.0000
vn -0.9619 0.1578 -0.2233
vn -0.0000 0.0000 1.0000
vn 0.6902 0.5555 0.4636
vn 0.5986 0.8011 0.0000
vn 0.6684 0.7023 -0.2450
vn 0.3082 0.9511 -0.0197
vn 0.6902 -0.5555 0.4636
vn 0.5986 -0.8011 0.0000
vn 0.6684 -0.7023 -0.2450
vn -0.0000 -0.2710 0.9626
vn -0.0000 0.9216 0.3881
vn 0.0000 -0.8988 0.4383
vn -0.9926 -0.0589 0.1059
vn -0.5495 -0.5495 0.6293
vn 0.6113 -0.6113 0.5026
vn -0.6865 0.6865 0.2394
vn 0.6865 0.6865 0.2394
vn 0.8591 0.3469 0.3763
vn -0.7802 0.4884 0.3908
vn 0.3613 0.8974 0.2531
vn 0.4978 -0.5987 0.6274
vn -0.0000 0.6640 0.7477
vn -0.8892 -0.0353 0.4561
vn 0.0145 0.8410 0.5409
vn -0.5301 -0.0631 0.8456
vn -0.2321 -0.8660 0.4428
vn 0.0000 0.9494 0.3141
vn -0.9159 -0.3484 0.1995
vn 0.9159 -0.3484 0.1995
vn 0.0626 -0.0000 0.9980
vn 0.9279 0.2367 -0.2880
vn 0.8545 0.5194 0.0000
vn 0.9218 0.2461 -0.2996
vn 0.0521 0.0000 -0.9986
vn 0.9509 0.1964 -0.2391
vn -0.8324 -0.5542 0.0000
vn -0.0432 0.0000 0.9991
vn -0.9279 0.2367 -0.2880
vn 0.8582 -0.5133 0.0000
vn -0.9218 0.2461 -0.2996
vn -0.0842 -0.0000 -0.9965
vn -0.9509 0.1964 -0.2391
vn -0.8582 0.5133 -0.0000
vn -0.0000 0.9775 0.2110
vn 0.0000 0.9775 -0.2110
vn -0.0000 0.9751 0.2217
vn 0.0000 0.9751 -0.2217
vn -0.0000 0.9858 0.1681
vn 0.0000 0.9858 -0.1681
vn 0.0000 0.9659 -0.2588
vn -0.4939 -0.5940 0.6350
vn -0.5526 -0.8335 0.0000
vn 0.2321 -0.8660 0.4428
vn 0.5526 -0.8335 -0.0000
vn 0.2262 0.9640 0.1402
vn 0.3552 0.8823 -0.3089
vn 0.3658 0.9084 -0.2024
vn 0.3658 0.9084 0.2024
vn 0.3601 0.8943 -0.2657
vn 0.3601 0.8943 0.2657
vn 0.3613 0.8974 -0.2531
vn -0.8083 0.4579 0.3700
vn -0.7498 0.4694 -0.4664
vn -0.8036 0.5031 -0.3181
vn -0.8036 0.5031 0.3181
vn -0.7737 0.4844 -0.4083
vn -0.7737 0.4844 0.4083
vn -0.7802 0.4884 -0.3908
vn -0.0000 -0.5977 0.8017
vn 0.0000 -1.0000 -0.0000
vn 1.0000 0.0000 0.0000
vn -0.4646 -0.0000 -0.8855
vn -0.8610 -0.5086 0.0000
vn 0.5296 0.0000 0.8483
vn 0.8859 0.4639 0.0000
vn -0.0821 0.0000 -0.9966
vn -0.7494 -0.6621 0.0000
vn 0.7861 0.6181 0.0000
vn 0.1962 0.0000 0.9806
vn -0.8728 -0.4880 0.0000
vn 0.0843 0.0000 -0.9964
vn 0.8795 0.4759 0.0000
vn 0.0431 0.0000 0.9991
vn -1.0000 -0.0000 0.0000
vn -0.8762 0.4819 -0.0000
vn 0.8389 -0.5442 0.0000
vn -0.6656 -0.0000 0.7463
vn 0.3378 -0.0000 -0.9412
vn -0.8617 0.5074 0.0000
vn 0.6223 0.0000 -0.7828
vn -0.4225 0.0000 0.9063
vn -0.8707 0.4918 0.0000
vn 0.8392 -0.5439 -0.0000
vn 0.0917 -0.0000 -0.9958
vn 0.8556 -0.5177 -0.0000
vn -0.2076 0.0000 0.9782
vn 0.8541 -0.4815 0.1969
vn -0.7889 0.4994 -0.3581
vn -0.0840 0.0563 -0.9949
vn -0.0000 0.0000 -1.0000
vn 0.7495 -0.6620 0.0000
vn -0.6717 0.6479 -0.3591
vn -0.7129 0.6429 -0.2801
vn 0.7640 -0.6452 0.0000
vn -0.6229 0.6687 0.4061
vn 0.6372 -0.7707 0.0000
vn -0.6370 -0.7708 0.0000
vn 0.6227 0.6689 0.4061
vn 0.7127 0.6431 -0.2801
vn -0.7638 -0.6454 -0.0000
vn -0.7494 -0.6622 -0.0000
vn 0.6716 0.6481 -0.3591
vn -0.8525 -0.4797 0.2079
vn 0.7888 0.4996 -0.3581
vn 0.0829 0.0555 -0.9950
vn 0.7802 0.4884 -0.3908
vn 0.7737 0.4844 0.4083
vn 0.7737 0.4844 -0.4083
vn 0.8036 0.5031 0.3181
vn 0.8036 0.5031 -0.3181
vn 0.7498 0.4694 -0.4664
vn 0.8083 0.4579 0.3700
vn 0.5301 -0.0631 0.8456
vn 0.7802 0.4884 0.3908
vn -0.3613 0.8974 -0.2531
vn -0.3601 0.8943 0.2657
vn -0.3601 0.8943 -0.2657
vn -0.3658 0.9084 0.2024
vn -0.3658 0.9084 -0.2024
vn -0.3552 0.8823 -0.3089
vn -0.2262 0.9640 0.1402
vn -0.0145 0.8410 0.5409
vn -0.3613 0.8974 0.2531
vn -0.0267 -0.9036 0.4275
vn -0.2363 -0.8843 0.4026
vn 0.2363 -0.8843 0.4026
vn 0.0267 -0.9036 0.4275
vn -0.8591 0.3469 0.3763
vn 0.8892 -0.0353 0.4561
vn 0.0000 0.8397 0.5430
vn -0.0302 0.9899 -0.1387
vn 0.0302 0.9899 -0.1387
vn -0.6684 -0.7023 -0.2450
vn 0.0000 -0.9792 -0.2027
vn -0.5986 -0.8011 0.0000
vn -0.6902 -0.5555 0.4636
vn -0.0000 -0.9094 0.4159
vn -0.6684 0.7023 -0.2450
vn 0.0000 0.9792 -0.2027
vn -0.5986 0.8011 -0.0000
vn 0.0000 1.0000 -0.0000
vn -0.6902 0.5555 0.4636
vn -0.0000 0.9094 0.4159
vn -0.7044 0.2295 -0.6717
vn -0.7062 0.5228 -0.4774
vn 0.0000 0.8478 -0.5304
vn -0.7062 -0.5228 -0.4774
vn 0.0000 -0.8478 -0.5304
vn -0.0000 -0.9738 0.2272
vn 0.0000 -0.3493 -0.9370
vn 0.0000 0.3493 -0.9370
vn 0.0000 0.7671 -0.6415
vn -0.7044 -0.2295 -0.6717
vn -0.5806 -0.3286 -0.7449
vn -0.5806 0.3286 -0.7449
vn -0.9619 -0.1578 -0.2233
vn -0.9682 -0.1403 -0.2074
vn -0.9682 0.1403 -0.2074
vn -0.9905 -0.1374 0.0000
vn -0.9901 -0.1402 0.0000
vn -0.9901 0.1402 -0.0000
vn -0.8861 -0.1705 0.4311
vn -0.8869 -0.2106 0.4112
vn -0.8869 0.2106 0.4112
vn 0.8861 -0.1705 0.4311
vn 0.8869 -0.2106 0.4112
vn 0.8869 0.2106 0.4112
vn 0.9905 -0.1374 0.0000
vn 0.9901 -0.1402 0.0000
vn 0.9901 0.1402 0.0000
vn 0.9619 -0.1578 -0.2233
vn 0.9682 -0.1403 -0.2074
vn 0.9682 0.1403 -0.2074
vn 0.9158 -0.2365 -0.3247
vn 0.9426 -0.1888 -0.2755
vn 0.9426 0.1888 -0.2755
vn 0.7044 -0.2295 -0.6717
vn 0.5806 -0.3286 -0.7449
vn 0.5806 0.3286 -0.7449
vn -0.9158 -0.2365 -0.3247
vn -0.9426 -0.1888 -0.2755
vn -0.9426 0.1888 -0.2755
vn 0.8551 -0.0000 -0.5184
vn -0.8576 -0.0000 -0.5143
s off
f 238//1 205//1 3//1 14//1
f 221//2 24//2 7//2 208//2
f 272//3 23//3 6//3 241//3
f 281//4 208//4 7//4 244//4
f 200//5 196//5 51//5 48//5
f 18//6 259//6 258//6 257//6 28//6 44//6 43//6 36//6 38//6
f 244//7 7//7 24//7 245//7
f 245//8 24//8 25//8 248//8
f 248//9 25//9 26//9 251//9
f 251//9 26//9 27//9 254//9
f 254//10 27//10 28//10 257//10
f 33//11 35//11 9//11 224//11 225//11 226//11 18//11 38//11 37//11
f 260//12 19//12 20//12 263//12
f 263//13 20//13 21//13 266//13
f 266//13 21//13 22//13 269//13
f 269//14 22//14 23//14 272//14
f 49//15 185//15 50//15 45//15 46//15 47//15 48//15 51//15 175//15 52//15
f 209//16 28//16 27//16 212//16
f 212//17 27//17 26//17 215//17
f 215//17 26//17 25//17 218//17
f 218//18 25//18 24//18 221//18
f 198//19 194//19 45//19 50//19
f 226//20 229//20 17//20 18//20
f 229//21 232//21 16//21 17//21
f 232//21 235//21 15//21 16//21
f 235//22 238//22 14//22 15//22
f 80//23 102//23 4//23 32//23
f 41//24 40//24 42//24 44//24 28//24 209//24 210//24 211//24 19//24
f 199//25 193//25 49//25 52//25
f 35//26 34//26 39//26 41//26 19//26 260//26 261//26 262//26 9//26
f 33//27 34//27 35//27
f 36//28 37//28 38//28
f 39//29 184//29 40//29 41//29
f 42//30 174//30 43//30 44//30
f 197//31 46//31 45//31 194//31
f 192//32 184//32 39//32 67//32
f 182//33 174//33 42//33 53//33
f 108//34 37//34 36//34 60//34
f 197//35 195//35 47//35 46//35
f 195//36 4//36 1//36 200//36
f 201//37 173//37 5//37 199//37
f 202//38 183//38 29//38 198//38
f 80//39 32//39 31//39 81//39
f 59//40 88//40 30//40 5//40
f 73//41 81//41 31//41 29//41
f 66//42 95//42 8//42 1//42
f 156//43 155//43 118//43 119//43
f 60//44 101//44 100//44 61//44
f 148//45 147//45 123//45 124//45
f 62//46 99//46 98//46 63//46
f 154//47 153//47 120//47 117//47
f 64//48 97//48 96//48 65//48
f 146//49 145//49 113//49 114//49
f 160//50 159//50 134//50 135//50
f 67//51 87//51 86//51 68//51
f 162//52 161//52 137//52 138//52
f 69//53 85//53 84//53 70//53
f 158//54 157//54 136//54 133//54
f 71//55 83//55 82//55 72//55
f 166//56 165//56 129//56 130//56
f 42//57 40//57 94//57 53//57
f 53//58 94//58 93//58 54//58
f 54//59 93//59 92//59 55//59
f 55//60 92//60 91//60 56//60
f 56//61 91//61 90//61 57//61
f 57//62 90//62 89//62 58//62
f 58//63 89//63 88//63 59//63
f 33//64 74//64 87//64 34//64
f 74//65 75//65 86//65 87//65
f 75//65 76//65 85//65 86//65
f 76//65 77//65 84//65 85//65
f 77//65 78//65 83//65 84//65
f 78//65 79//65 82//65 83//65
f 79//65 80//65 81//65 82//65
f 4//66 102//66 66//66 1//66
f 102//67 103//67 65//67 66//67
f 103//67 104//67 64//67 65//67
f 104//67 105//67 63//67 64//67
f 105//67 106//67 62//67 63//67
f 106//67 107//67 61//67 62//67
f 107//67 108//67 60//67 61//67
f 173//68 176//68 59//68 5//68
f 176//69 177//69 58//69 59//69
f 177//70 178//70 57//70 58//70
f 178//71 179//71 56//71 57//71
f 179//72 180//72 55//72 56//72
f 180//73 181//73 54//73 55//73
f 181//74 182//74 53//74 54//74
f 183//75 186//75 73//75 29//75
f 186//76 187//76 72//76 73//76
f 187//77 188//77 71//77 72//77
f 188//78 189//78 70//78 71//78
f 189//79 190//79 69//79 70//79
f 190//80 191//80 68//80 69//80
f 191//81 192//81 67//81 68//81
f 33//82 37//82 108//82 74//82
f 74//83 108//83 107//83 75//83
f 75//83 107//83 106//83 76//83
f 76//83 106//83 105//83 77//83
f 77//83 105//83 104//83 78//83
f 78//83 104//83 103//83 79//83
f 79//83 103//83 102//83 80//83
f 111//84 110//84 109//84 112//84
f 113//84 124//84 123//84 114//84
f 115//84 122//84 121//84 116//84
f 117//84 120//84 119//84 118//84
f 142//85 141//85 110//85 111//85
f 150//86 149//86 115//86 116//86
f 144//87 143//87 112//87 109//87
f 141//88 144//88 109//88 110//88
f 145//89 148//89 124//89 113//89
f 155//90 154//90 117//90 118//90
f 153//91 156//91 119//91 120//91
f 147//92 146//92 114//92 123//92
f 143//93 142//93 111//93 112//93
f 149//94 151//94 122//94 115//94
f 151//95 152//95 121//95 122//95
f 152//96 150//96 116//96 121//96
f 127//97 126//97 125//97 128//97
f 129//97 140//97 139//97 130//97
f 131//97 138//97 137//97 132//97
f 133//97 136//97 135//97 134//97
f 164//98 163//98 131//98 132//98
f 168//99 167//99 139//99 140//99
f 170//100 169//100 128//100 125//100
f 165//101 168//101 140//101 129//101
f 159//102 158//102 133//102 134//102
f 172//103 171//103 126//103 127//103
f 167//104 166//104 130//104 139//104
f 169//105 172//105 127//105 128//105
f 157//106 160//106 135//106 136//106
f 163//107 162//107 138//107 131//107
f 171//108 170//108 125//108 126//108
f 161//109 164//109 132//109 137//109
f 60//110 36//110 142//110 143//110
f 43//111 101//111 144//111 141//111
f 101//15 60//15 143//15 144//15
f 36//112 43//112 141//112 142//112
f 99//15 62//15 146//15 147//15
f 61//113 100//113 148//113 145//113
f 62//114 61//114 145//114 146//114
f 100//115 99//115 147//115 148//115
f 97//15 64//15 150//15 152//15
f 98//116 97//116 152//116 151//116
f 63//113 98//113 151//113 149//113
f 64//117 63//117 149//117 150//117
f 96//118 95//118 156//118 153//118
f 66//119 65//119 154//119 155//119
f 65//113 96//113 153//113 154//113
f 95//15 66//15 155//15 156//15
f 82//120 81//120 160//120 157//120
f 73//121 72//121 158//121 159//121
f 72//113 82//113 157//113 158//113
f 81//15 73//15 159//15 160//15
f 83//15 71//15 164//15 161//15
f 70//113 84//113 162//113 163//113
f 71//122 70//122 163//122 164//122
f 84//123 83//123 161//123 162//123
f 85//15 69//15 166//15 167//15
f 68//113 86//113 168//113 165//113
f 86//124 85//124 167//124 168//124
f 69//125 68//125 165//125 166//125
f 34//126 87//126 170//126 171//126
f 67//127 39//127 172//127 169//127
f 39//128 34//128 171//128 172//128
f 87//15 67//15 169//15 170//15
f 100//129 101//129 182//129 181//129
f 99//130 100//130 181//130 180//130
f 98//131 99//131 180//131 179//131
f 97//132 98//132 179//132 178//132
f 96//133 97//133 178//133 177//133
f 95//134 96//134 177//134 176//134
f 8//135 95//135 176//135 173//135
f 196//136 8//136 173//136 201//136
f 101//137 43//137 174//137 182//137
f 93//138 94//138 192//138 191//138
f 92//139 93//139 191//139 190//139
f 91//140 92//140 190//140 189//140
f 90//141 91//141 189//141 188//141
f 89//142 90//142 188//142 187//142
f 88//143 89//143 187//143 186//143
f 30//144 88//144 186//144 183//144
f 193//145 30//145 183//145 202//145
f 94//146 40//146 184//146 192//146
f 49//147 193//147 202//147 185//147
f 51//148 196//148 201//148 175//148
f 185//149 202//149 198//149 50//149
f 175//150 201//150 199//150 52//150
f 47//151 195//151 200//151 48//151
f 32//35 4//35 195//35 197//35
f 32//152 197//152 194//152 31//152
f 5//153 30//153 193//153 199//153
f 29//154 31//154 194//154 198//154
f 1//155 8//155 196//155 200//155
f 12//156 13//156 236//156 233//156
f 233//157 236//157 237//157 234//157
f 234//157 237//157 238//157 235//157
f 11//158 12//158 233//158 230//158
f 230//83 233//83 234//83 231//83
f 231//83 234//83 235//83 232//83
f 10//158 11//158 230//158 227//158
f 227//83 230//83 231//83 228//83
f 228//83 231//83 232//83 229//83
f 9//159 10//159 227//159 224//159
f 224//160 227//160 228//160 225//160
f 225//160 228//160 229//160 226//160
f 22//161 220//161 223//161 23//161
f 220//162 219//162 222//162 223//162
f 219//162 218//162 221//162 222//162
f 21//163 217//163 220//163 22//163
f 217//164 216//164 219//164 220//164
f 216//164 215//164 218//164 219//164
f 20//163 214//163 217//163 21//163
f 214//164 213//164 216//164 217//164
f 213//164 212//164 215//164 216//164
f 19//165 211//165 214//165 20//165
f 211//166 210//166 213//166 214//166
f 210//166 209//166 212//166 213//166
f 241//167 6//167 206//167 275//167
f 275//113 206//113 207//113 278//113
f 278//113 207//113 208//113 281//113
f 23//168 223//168 206//168 6//168
f 223//169 222//169 207//169 206//169
f 222//169 221//169 208//169 207//169
f 13//170 2//170 203//170 236//170
f 236//171 203//171 204//171 237//171
f 237//171 204//171 205//171 238//171
f 205//172 204//172 285//172 286//172
f 280//173 279//173 282//173 283//173
f 279//174 278//174 281//174 282//174
f 280//175 283//175 289//175 288//175
f 277//173 276//173 279//173 280//173
f 276//174 275//174 278//174 279//174
f 2//176 239//176 277//176 203//176
f 239//177 240//177 276//177 277//177
f 240//178 241//178 275//178 276//178
f 12//179 271//179 274//179 13//179
f 271//180 270//180 273//180 274//180
f 270//181 269//181 272//181 273//181
f 11//182 268//182 271//182 12//182
f 268//183 267//183 270//183 271//183
f 267//184 266//184 269//184 270//184
f 10//182 265//182 268//182 11//182
f 265//183 264//183 267//183 268//183
f 264//184 263//184 266//184 267//184
f 9//185 262//185 265//185 10//185
f 262//186 261//186 264//186 265//186
f 261//187 260//187 263//187 264//187
f 17//188 256//188 259//188 18//188
f 256//189 255//189 258//189 259//189
f 255//190 254//190 257//190 258//190
f 16//191 253//191 256//191 17//191
f 253//192 252//192 255//192 256//192
f 252//193 251//193 254//193 255//193
f 15//191 250//191 253//191 16//191
f 250//192 249//192 252//192 253//192
f 249//193 248//193 251//193 252//193
f 14//194 247//194 250//194 15//194
f 247//195 246//195 249//195 250//195
f 246//196 245//196 248//196 249//196
f 3//197 242//197 247//197 14//197
f 242//198 243//198 246//198 247//198
f 243//199 244//199 245//199 246//199
f 205//200 283//200 242//200 3//200
f 283//201 282//201 243//201 242//201
f 282//202 281//202 244//202 243//202
f 13//203 274//203 239//203 2//203
f 274//204 273//204 240//204 239//204
f 273//205 272//205 241//205 240//205
f 285//113 288//113 289//113 286//113
f 284//113 287//113 288//113 285//113
f 277//175 280//175 288//175 287//175
f 283//206 205//206 286//206 289//206
f 203//207 277//207 287//207 284//207
f 204//172 203//172 284//172 285//172
